<svg width="21" height="20" viewBox="0 0 21 20" fill="none" xmlns="http://www.w3.org/2000/svg">
<path d="M10.5 1.98507e-07C8.52219 1.98507e-07 6.58879 0.58649 4.9443 1.6853C3.29981 2.78412 2.01808 4.3459 1.26121 6.17316C0.504333 8.00042 0.3063 10.0111 0.692152 11.9509C1.078 13.8907 2.03041 15.6725 3.42894 17.0711C4.82746 18.4696 6.60929 19.422 8.5491 19.8078C10.4889 20.1937 12.4996 19.9957 14.3268 19.2388C16.1541 18.4819 17.7159 17.2002 18.8147 15.5557C19.9135 13.9112 20.5 11.9778 20.5 10C20.5003 8.6867 20.2418 7.38623 19.7393 6.17285C19.2369 4.95948 18.5003 3.85699 17.5717 2.92835C16.643 1.99971 15.5405 1.26313 14.3271 0.760672C13.1138 0.258218 11.8133 -0.000261492 10.5 1.98507e-07ZM14.5837 10.996H11.496V14.0837C11.496 14.3478 11.3911 14.6012 11.2043 14.788C11.0175 14.9747 10.7642 15.0797 10.5 15.0797C10.2358 15.0797 9.9825 14.9747 9.79571 14.788C9.60892 14.6012 9.50399 14.3478 9.50399 14.0837V10.996H6.41634C6.15218 10.996 5.89884 10.8911 5.71205 10.7043C5.52526 10.5175 5.42032 10.2642 5.42032 10C5.42032 9.73584 5.52526 9.4825 5.71205 9.29571C5.89884 9.10892 6.15218 9.00398 6.41634 9.00398H9.50399V5.91633C9.50399 5.65217 9.60892 5.39883 9.79571 5.21204C9.9825 5.02525 10.2358 4.92032 10.5 4.92032C10.7642 4.92032 11.0175 5.02525 11.2043 5.21204C11.3911 5.39883 11.496 5.65217 11.496 5.91633V9.00398H14.5837C14.8478 9.00398 15.1012 9.10892 15.288 9.29571C15.4747 9.4825 15.5797 9.73584 15.5797 10C15.5797 10.2642 15.4747 10.5175 15.288 10.7043C15.1012 10.8911 14.8478 10.996 14.5837 10.996Z" fill="#FBFBFB"/>
</svg>
